<svg preserveAspectRatio="none" overflow="visible" style="display: block;" width="22" height="22" viewBox="0 0 22 22" fill="none" xmlns="http://www.w3.org/2000/svg">
<g id="move"><path d="M8.26367 4.84758C8.01172 4.84758 7.80371 4.77433 7.63965 4.62785C7.47559 4.48137 7.38477 4.30265 7.36719 4.09172C7.34961 3.88078 7.43457 3.67863 7.62207 3.48527L10.2764 0.681561C10.4639 0.488201 10.6748 0.388592 10.9092 0.382732C11.1494 0.376873 11.3633 0.473553 11.5508 0.672771L14.2139 3.48527C14.4014 3.67863 14.4863 3.88078 14.4687 4.09172C14.457 4.30265 14.3662 4.48137 14.1963 4.62785C14.0322 4.77433 13.8242 4.84758 13.5723 4.84758H8.26367ZM16.5781 7.8798C16.5781 7.62785 16.6514 7.41984 16.7979 7.25578C16.9443 7.09172 17.123 7.0009 17.334 6.98332C17.5449 6.96574 17.75 7.0507 17.9492 7.2382L20.7617 9.90129C20.9551 10.0888 21.0488 10.3027 21.043 10.5429C21.0371 10.7831 20.9404 10.9941 20.7529 11.1757L17.9492 13.83C17.75 14.0175 17.5449 14.1025 17.334 14.0849C17.123 14.0673 16.9443 13.9765 16.7979 13.8124C16.6514 13.6484 16.5781 13.4403 16.5781 13.1884V7.8798ZM13.5723 16.2206C13.8242 16.2206 14.0322 16.2939 14.1963 16.4404C14.3662 16.581 14.457 16.7568 14.4687 16.9677C14.4863 17.1845 14.4014 17.3896 14.2139 17.5829L11.5596 20.3866C11.3779 20.58 11.167 20.6796 10.9268 20.6855C10.6865 20.6913 10.4727 20.5946 10.2852 20.3954L7.62207 17.5829C7.43457 17.3896 7.34961 17.1845 7.36719 16.9677C7.38477 16.7568 7.47559 16.581 7.63965 16.4404C7.80371 16.2939 8.01172 16.2206 8.26367 16.2206H13.5723ZM5.25781 13.1884C5.25781 13.4403 5.18457 13.6484 5.03809 13.8124C4.8916 13.9765 4.71289 14.0673 4.50195 14.0849C4.29102 14.1025 4.08594 14.0175 3.88672 13.83L1.07422 11.1669C0.880859 10.9794 0.787109 10.7655 0.792969 10.5253C0.798828 10.2851 0.895508 10.0741 1.08301 9.8925L3.88672 7.2382C4.08594 7.0507 4.29102 6.96574 4.50195 6.98332C4.71289 7.0009 4.8916 7.09172 5.03809 7.25578C5.18457 7.41984 5.25781 7.62785 5.25781 7.8798V13.1884ZM10.9268 18.2948C10.71 18.2948 10.5225 18.2157 10.3643 18.0575C10.2119 17.9052 10.1357 17.7206 10.1357 17.5038V3.56437C10.1357 3.34758 10.2119 3.16301 10.3643 3.01066C10.5225 2.85832 10.71 2.78215 10.9268 2.78215C11.1377 2.78215 11.3193 2.85832 11.4717 3.01066C11.6299 3.16301 11.709 3.34758 11.709 3.56437V17.5038C11.709 17.7206 11.6299 17.9052 11.4717 18.0575C11.3193 18.2157 11.1377 18.2948 10.9268 18.2948ZM3.1748 10.5341C3.1748 10.3173 3.25098 10.1327 3.40332 9.98039C3.56152 9.82219 3.74609 9.74308 3.95703 9.74308H17.8965C18.1133 9.74308 18.2979 9.82219 18.4502 9.98039C18.6084 10.1327 18.6875 10.3173 18.6875 10.5341C18.6875 10.745 18.6084 10.9296 18.4502 11.0878C18.2979 11.2402 18.1133 11.3163 17.8965 11.3163H3.95703C3.74609 11.3163 3.56152 11.2402 3.40332 11.0878C3.25098 10.9296 3.1748 10.745 3.1748 10.5341Z" fill="#D9D9D9"/></g>
</svg>
