<svg width="208" height="40" viewBox="0 0 208 40" fill="none" xmlns="http://www.w3.org/2000/svg">
<g id="&#229;&#189;&#149;&#229;&#177;&#143;-&#229;&#189;&#149;&#229;&#136;&#182;&#228;&#184;&#173;">
<g id="selected_area_recording">
<g id="record_menu_recording">
<g id="btn_start_record">
<rect width="208" height="40" rx="12" fill="#FA5151"/>
<path id="&#231;&#187;&#147;&#230;&#157;&#159;&#229;&#189;&#149;&#229;&#136;&#182;" d="M41.9026 22.436C41.9026 21.416 42.4126 20.906 43.4326 20.906H49.8046C50.8246 20.906 51.3346 21.416 51.3346 22.436V26.288C51.3346 27.308 50.8246 27.818 49.8046 27.818H43.4326C42.4126 27.818 41.9026 27.308 41.9026 26.288V22.436ZM49.1746 22.976H44.0626V25.748H49.1746V22.976ZM40.1746 25.298C40.7506 25.298 41.0386 25.586 41.0386 26.162V26.666C41.0386 27.242 40.7506 27.53 40.1746 27.53H36.1426C35.5666 27.53 35.2786 27.242 35.2786 26.666V26.162C35.2786 25.586 35.5666 25.298 36.1426 25.298H40.1746ZM40.8226 16.316C41.2906 16.604 41.3806 16.982 41.0926 17.45L38.6266 21.374H40.2286C40.7686 21.374 41.0386 21.644 41.0386 22.184V22.67C41.0386 23.21 40.7686 23.48 40.2286 23.48H37.5646C36.6766 23.48 36.1186 23.288 35.8906 22.904C35.6746 22.508 35.8066 21.926 36.2866 21.158L39.2926 16.334C39.5806 15.866 39.9586 15.776 40.4266 16.064L40.8226 16.316ZM39.9946 11.906C40.4626 12.194 40.5526 12.572 40.2646 13.04L37.6546 17.234L38.6986 18.026C39.1306 18.362 39.1846 18.74 38.8606 19.16L38.5726 19.556C38.2366 19.988 37.8586 20.042 37.4386 19.718L35.9446 18.566C35.2246 18.014 35.1046 17.342 35.5846 16.55L38.4646 11.924C38.7526 11.456 39.1306 11.366 39.5986 11.654L39.9946 11.906ZM50.7766 17.36C51.3046 17.36 51.5686 17.624 51.5686 18.152V18.638C51.5686 19.166 51.3046 19.43 50.7766 19.43H42.4786C41.9386 19.43 41.6686 19.16 41.6686 18.62V18.17C41.6686 17.63 41.9386 17.36 42.4786 17.36H50.7766ZM46.8526 11.42C47.4166 11.42 47.6986 11.702 47.6986 12.266V17.486C47.6986 18.05 47.4166 18.332 46.8526 18.332H46.3846C45.8206 18.332 45.5386 18.05 45.5386 17.486V12.266C45.5386 11.702 45.8206 11.42 46.3846 11.42H46.8526ZM51.0826 13.112C51.6106 13.112 51.8746 13.376 51.8746 13.904V14.39C51.8746 14.918 51.6106 15.182 51.0826 15.182H42.1546C41.6146 15.182 41.3446 14.912 41.3446 14.372V13.922C41.3446 13.382 41.6146 13.112 42.1546 13.112H51.0826ZM54.4486 17.468C54.4486 16.976 54.5746 16.604 54.8266 16.352C55.0786 16.1 55.4506 15.974 55.9426 15.974H67.1746C67.6666 15.974 68.0386 16.1 68.2906 16.352C68.5426 16.604 68.6686 16.976 68.6686 17.468V20.726C68.6686 21.218 68.5426 21.59 68.2906 21.842C68.0386 22.094 67.6666 22.22 67.1746 22.22H55.9426C55.4506 22.22 55.0786 22.094 54.8266 21.842C54.5746 21.59 54.4486 21.218 54.4486 20.726V17.468ZM66.5086 17.954H56.6086V20.24H66.5086V17.954ZM59.1106 21.302C59.6506 21.47 59.8186 21.818 59.6146 22.346C59.1706 23.462 58.5346 24.464 57.7066 25.352C56.8906 26.228 55.9486 26.978 54.8806 27.602C54.3886 27.89 54.0166 27.782 53.7646 27.278L53.5486 26.846C53.3086 26.354 53.4286 25.97 53.9086 25.694C54.8806 25.118 55.6786 24.482 56.3026 23.786C56.9386 23.078 57.3526 22.376 57.5446 21.68C57.6526 21.428 57.7966 21.26 57.9766 21.176C58.1566 21.08 58.3786 21.074 58.6426 21.158L59.1106 21.302ZM61.7926 11.42C62.3566 11.42 62.6386 11.702 62.6386 12.266V27.134C62.6386 27.698 62.3566 27.98 61.7926 27.98H61.3246C60.7606 27.98 60.4786 27.698 60.4786 27.134V12.266C60.4786 11.702 60.7606 11.42 61.3246 11.42H61.7926ZM64.4746 21.158C64.7386 21.074 64.9606 21.08 65.1406 21.176C65.3206 21.26 65.4646 21.428 65.5726 21.68C65.9206 22.532 66.4006 23.294 67.0126 23.966C67.6366 24.626 68.3686 25.202 69.2086 25.694C69.6886 25.97 69.8086 26.354 69.5686 26.846L69.3526 27.278C69.1006 27.782 68.7286 27.89 68.2366 27.602C67.0366 26.906 66.0166 26.096 65.1766 25.172C64.3486 24.236 63.7906 23.294 63.5026 22.346C63.2986 21.818 63.4666 21.47 64.0066 21.302L64.4746 21.158ZM68.7946 12.59C69.3106 12.59 69.5686 12.848 69.5686 13.364V13.85C69.5686 14.366 69.3106 14.624 68.7946 14.624H54.3406C53.8126 14.624 53.5486 14.36 53.5486 13.832V13.382C53.5486 12.854 53.8126 12.59 54.3406 12.59H68.7946ZM72.4846 12.464C72.4846 11.96 72.7366 11.708 73.2406 11.708H83.5906C84.5866 11.708 85.0846 12.206 85.0846 13.202V17.954C85.0846 18.518 84.8026 18.8 84.2386 18.8H83.7706C83.2066 18.8 82.9246 18.518 82.9246 17.954V13.652H73.2406C72.7366 13.652 72.4846 13.4 72.4846 12.896V12.464ZM73.2406 15.506C73.2406 15.014 73.4866 14.768 73.9786 14.768H83.2666C83.7586 14.768 84.0046 15.014 84.0046 15.506V15.938C84.0046 16.43 83.7586 16.676 83.2666 16.676H73.9786C73.4866 16.676 73.2406 16.43 73.2406 15.938V15.506ZM71.4226 18.584C71.4226 18.08 71.6746 17.828 72.1786 17.828H86.9386C87.4426 17.828 87.6946 18.08 87.6946 18.584V19.016C87.6946 19.52 87.4426 19.772 86.9386 19.772H72.1786C71.6746 19.772 71.4226 19.52 71.4226 19.016V18.584ZM76.8226 26.54C76.8226 25.988 77.0986 25.712 77.6506 25.712H78.5506V19.646C78.5506 19.082 78.8326 18.8 79.3966 18.8H79.8646C80.4286 18.8 80.7106 19.082 80.7106 19.646V26.288C80.7106 26.804 80.5786 27.188 80.3146 27.44C80.0626 27.704 79.6786 27.836 79.1626 27.836H77.6506C77.0986 27.836 76.8226 27.56 76.8226 27.008V26.54ZM77.4886 22.994C77.8846 23.402 77.8666 23.798 77.4346 24.182C76.7746 24.782 76.0546 25.364 75.2746 25.928C74.4946 26.492 73.7206 27.008 72.9526 27.476C72.4726 27.752 72.0946 27.65 71.8186 27.17L71.6026 26.774C71.3266 26.306 71.4286 25.928 71.9086 25.64C72.7486 25.124 73.5286 24.596 74.2486 24.056C74.9806 23.516 75.5506 23.042 75.9586 22.634C76.3786 22.25 76.7806 22.262 77.1646 22.67L77.4886 22.994ZM73.7086 20.312C74.2246 20.084 74.5906 20.228 74.8066 20.744L75.2926 21.932C75.5086 22.436 75.3706 22.796 74.8786 23.012L74.4466 23.192C73.9426 23.408 73.5766 23.264 73.3486 22.76L72.8626 21.572C72.6466 21.068 72.7846 20.708 73.2766 20.492L73.7086 20.312ZM84.3106 20.744C84.5386 20.228 84.9046 20.084 85.4086 20.312L85.8406 20.492C86.3326 20.708 86.4706 21.068 86.2546 21.572L85.7686 22.76C85.5526 23.264 85.1866 23.408 84.6706 23.192L84.2386 23.012C83.7466 22.796 83.6086 22.436 83.8246 21.932L84.3106 20.744ZM81.9526 22.67C82.3366 22.262 82.7386 22.25 83.1586 22.634C83.7466 23.174 84.3886 23.702 85.0846 24.218C85.7926 24.722 86.5006 25.196 87.2086 25.64C87.6886 25.928 87.7906 26.306 87.5146 26.774L87.2986 27.17C87.0226 27.65 86.6446 27.752 86.1646 27.476C85.2766 26.936 84.4246 26.366 83.6086 25.766C82.7926 25.166 82.1506 24.638 81.6826 24.182C81.2626 23.798 81.2446 23.402 81.6286 22.994L81.9526 22.67ZM104.723 11.42C105.287 11.42 105.569 11.702 105.569 12.266V26.18C105.569 27.26 105.029 27.8 103.949 27.8H102.293C101.693 27.8 101.393 27.5 101.393 26.9V26.396C101.393 25.796 101.693 25.496 102.293 25.496H103.409V12.266C103.409 11.702 103.691 11.42 104.255 11.42H104.723ZM101.141 12.806C101.693 12.806 101.969 13.082 101.969 13.634V23.21C101.969 23.762 101.693 24.038 101.141 24.038H100.673C100.121 24.038 99.8446 23.762 99.8446 23.21V13.634C99.8446 13.082 100.121 12.806 100.673 12.806H101.141ZM97.4146 20.456C98.3506 20.456 98.8186 20.924 98.8186 21.86V25.298C98.8186 26.234 98.3506 26.702 97.4146 26.702H96.7126C96.1966 26.702 95.9386 26.444 95.9386 25.928V25.46C95.9386 24.944 96.2026 24.686 96.7306 24.686H96.9466V22.472H91.3126V26.09C91.3126 26.57 91.0726 26.81 90.5926 26.81H90.1606C89.6806 26.81 89.4406 26.57 89.4406 26.09V21.86C89.4406 20.924 89.9086 20.456 90.8446 20.456H97.4146ZM98.2066 16.748C98.7226 16.748 98.9806 17.006 98.9806 17.522V17.99C98.9806 18.506 98.7226 18.764 98.2066 18.764H90.0346C89.5186 18.764 89.2606 18.506 89.2606 17.99V17.522C89.2606 17.006 89.5186 16.748 90.0346 16.748H98.2066ZM90.6826 11.924C91.1626 11.924 91.4026 12.164 91.4026 12.644V13.13H97.9546C98.4706 13.13 98.7286 13.388 98.7286 13.904V14.372C98.7286 14.888 98.4706 15.146 97.9546 15.146H90.9346C89.9986 15.146 89.5306 14.678 89.5306 13.742V12.644C89.5306 12.164 89.7706 11.924 90.2506 11.924H90.6826ZM94.3726 11.42C94.9126 11.42 95.1826 11.69 95.1826 12.23V27.224C95.1826 27.764 94.9126 28.034 94.3726 28.034H93.9046C93.3646 28.034 93.0946 27.764 93.0946 27.224V12.23C93.0946 11.69 93.3646 11.42 93.9046 11.42H94.3726Z" fill="white"/>
</g>
</g>
</g>
</g>
<defs>
<filter id="filter0_d_0_1" x="-32" y="-28" width="272" height="104" filterUnits="userSpaceOnUse" color-interpolation-filters="sRGB">
<feFlood flood-opacity="0" result="BackgroundImageFix"/>
<feColorMatrix in="SourceAlpha" type="matrix" values="0 0 0 0 0 0 0 0 0 0 0 0 0 0 0 0 0 0 127 0" result="hardAlpha"/>
<feOffset dy="4"/>
<feGaussianBlur stdDeviation="8"/>
<feComposite in2="hardAlpha" operator="out"/>
<feColorMatrix type="matrix" values="0 0 0 0 0 0 0 0 0 0 0 0 0 0 0 0 0 0 0.16 0"/>
<feBlend mode="normal" in2="BackgroundImageFix" result="effect1_dropShadow_0_1"/>
<feBlend mode="normal" in="SourceGraphic" in2="effect1_dropShadow_0_1" result="shape"/>
</filter>
</defs>
</svg>
