<svg preserveAspectRatio="none" overflow="visible" style="display: block;" width="19.7578" height="13.1719" viewBox="0 0 19.7578 13.1719" fill="none" xmlns="http://www.w3.org/2000/svg">
<path id="&#244;&#128;&#141;&#138;" d="M2.88281 13.1719C1.95573 13.1719 1.24219 12.9479 0.742188 12.5C0.247396 12.0573 0 11.3906 0 10.5V2.78906C0 1.90365 0.252604 1.21875 0.757812 0.734375C1.26823 0.244792 1.97656 0 2.88281 0H10.875C11.8021 0 12.5078 0.244792 12.9922 0.734375C13.4766 1.21875 13.7188 1.90365 13.7188 2.78906V10.375C13.7188 11.2656 13.4688 11.9531 12.9688 12.4375C12.474 12.9271 11.763 13.1719 10.8359 13.1719H2.88281ZM14.9844 9.40625V3.85156L17.3984 1.78906C17.6016 1.61719 17.7995 1.47917 17.9922 1.375C18.1901 1.27083 18.388 1.21875 18.5859 1.21875C18.9297 1.21875 19.2109 1.32812 19.4297 1.54688C19.6484 1.76562 19.7578 2.0625 19.7578 2.4375V10.8281C19.7578 11.2031 19.6484 11.5 19.4297 11.7188C19.2109 11.9375 18.9297 12.0469 18.5859 12.0469C18.388 12.0469 18.1901 11.9948 17.9922 11.8906C17.7995 11.7865 17.6016 11.6484 17.3984 11.4766L14.9844 9.40625Z" fill="#D9D9D9"/>
</svg>
