<svg preserveAspectRatio="none" overflow="visible" style="display: block;" width="32" height="32" viewBox="0 0 32 32" fill="none" xmlns="http://www.w3.org/2000/svg">
<g id="text_style_switcher_outline_2">
<path id="T" d="M22.4389 3.41214C23.1103 3.41214 23.7862 3.58957 24.2953 4.09866C24.8044 4.60776 24.9818 5.2837 24.9818 5.95511V6.80179C24.9818 7.47313 24.8043 8.1492 24.2953 8.65823C23.7863 9.16707 23.1101 9.34378 22.4389 9.34378H19.0238V25.2207C19.0238 25.9239 18.83 26.6146 18.307 27.1377C17.7912 27.6535 17.0987 27.8243 16.4203 27.8243H15.5736C14.8893 27.8243 14.2084 27.6519 13.683 27.1641C13.6649 27.1473 13.648 27.1294 13.6312 27.1114C13.1434 26.586 12.9701 25.905 12.9701 25.2207V9.34378H9.5248C8.85353 9.34378 8.17741 9.16707 7.66835 8.65823C7.15932 8.1492 6.98187 7.47313 6.98183 6.80179V5.95511C6.98183 5.28369 7.15926 4.60776 7.66835 4.09866C8.17744 3.58957 8.85338 3.41214 9.5248 3.41214H22.4389Z" fill="#939393" stroke="#D9D9D9" stroke-width="2" stroke-linejoin="round"/>
</g>
</svg>
